<svg xmlns="http://www.w3.org/2000/svg" xmlns:xlink="http://www.w3.org/1999/xlink" viewBox="0 0 259.49 54.21"><defs><style>.cls-1{fill:none;}.cls-2{clip-path:url(#clip-path);}.cls-3{clip-path:url(#clip-path-2);}.cls-4{fill:#1a1c24;}.cls-5{clip-path:url(#clip-path-3);}.cls-6{clip-path:url(#clip-path-5);}.cls-7{clip-path:url(#clip-path-7);}.cls-8{clip-path:url(#clip-path-9);}.cls-9{clip-path:url(#clip-path-11);}.cls-10{clip-path:url(#clip-path-13);}.cls-11{clip-path:url(#clip-path-15);}.cls-12{clip-path:url(#clip-path-17);}.cls-13{clip-path:url(#clip-path-19);}.cls-14{clip-path:url(#clip-path-21);}.cls-15{clip-path:url(#clip-path-23);}</style><clipPath id="clip-path" transform="translate(5 5)"><path class="cls-1" d="M101.3,16.2a7.39,7.39,0,0,0-2.69-2.77,6.86,6.86,0,0,0-3.56-1,7.34,7.34,0,0,0-3.57.93,6.91,6.91,0,0,0-2.68,2.73,8.35,8.35,0,0,0-1,4.26,8.69,8.69,0,0,0,1,4.35,7.19,7.19,0,0,0,2.68,2.83,7.05,7.05,0,0,0,3.52,1,7,7,0,0,0,3.57-1,7.19,7.19,0,0,0,2.68-2.83,8.63,8.63,0,0,0,1-4.3A8.3,8.3,0,0,0,101.3,16.2ZM84.22,14a11.06,11.06,0,0,1,4.07-4.31A10.91,10.91,0,0,1,94,8.19a10.49,10.49,0,0,1,5,1.12,10.14,10.14,0,0,1,3.38,2.77V8.61h5V32.55h-5V29a10.1,10.1,0,0,1-3.43,2.83,10.68,10.68,0,0,1-5,1.11,10.46,10.46,0,0,1-5.65-1.58,11.36,11.36,0,0,1-4.07-4.44,13.33,13.33,0,0,1-1.49-6.44A12.63,12.63,0,0,1,84.22,14Z"/></clipPath><clipPath id="clip-path-2" transform="translate(5 5)"><rect class="cls-1" x="-85.09" y="-220.32" width="842" height="1191"/></clipPath><clipPath id="clip-path-3" transform="translate(5 5)"><path class="cls-1" d="M130.93,16.16a6.93,6.93,0,0,0-2.69-2.73,7.33,7.33,0,0,0-3.56-.93,6.82,6.82,0,0,0-3.52,1,7.13,7.13,0,0,0-2.69,2.78,8.51,8.51,0,0,0-1,4.31,8.5,8.5,0,0,0,1,4.3,7.28,7.28,0,0,0,2.69,2.83,7,7,0,0,0,3.52,1,7,7,0,0,0,3.56-1,7.64,7.64,0,0,0,2.69-2.83,8.8,8.8,0,0,0,1-4.35A9,9,0,0,0,130.93,16.16ZM120.84,9.31a10.5,10.5,0,0,1,4.9-1.12,10.94,10.94,0,0,1,5.7,1.53A11.13,11.13,0,0,1,135.51,14,13.57,13.57,0,0,1,137,20.42a13.91,13.91,0,0,1-1.48,6.43,11.16,11.16,0,0,1-4.07,4.45,10.61,10.61,0,0,1-5.7,1.57A10.55,10.55,0,0,1,117.41,29V43.84h-5V8.52h5V12A10.35,10.35,0,0,1,120.84,9.31Z"/></clipPath><clipPath id="clip-path-5" transform="translate(5 5)"><path class="cls-1" d="M160.37,16.16a6.84,6.84,0,0,0-2.68-2.73,7.37,7.37,0,0,0-3.57-.93,6.84,6.84,0,0,0-3.52,1,7.1,7.1,0,0,0-2.68,2.78,8.41,8.41,0,0,0-1,4.31,8.4,8.4,0,0,0,1,4.3,7.19,7.19,0,0,0,2.68,2.83,7.08,7.08,0,0,0,3.52,1,7,7,0,0,0,3.57-1,7.54,7.54,0,0,0,2.68-2.83,8.69,8.69,0,0,0,1-4.35A8.46,8.46,0,0,0,160.37,16.16ZM150.28,9.31a10.54,10.54,0,0,1,4.91-1.12,10.91,10.91,0,0,1,5.69,1.53A11.15,11.15,0,0,1,165,14a13.57,13.57,0,0,1,1.48,6.39A13.91,13.91,0,0,1,165,26.85a11.26,11.26,0,0,1-4.08,4.45,10.58,10.58,0,0,1-5.69,1.57A10.59,10.59,0,0,1,146.85,29V43.84H141.9V8.52h4.95V12A10.24,10.24,0,0,1,150.28,9.31Z"/></clipPath><clipPath id="clip-path-7" transform="translate(5 5)"><path class="cls-1" d="M198.38,16.16a6.84,6.84,0,0,0-2.68-2.73,7.37,7.37,0,0,0-3.57-.93,6.82,6.82,0,0,0-3.52,1,7.1,7.1,0,0,0-2.68,2.78,8.41,8.41,0,0,0-1,4.31,8.4,8.4,0,0,0,1,4.3,7.19,7.19,0,0,0,2.68,2.83,7.05,7.05,0,0,0,3.52,1,7,7,0,0,0,3.57-1,7.54,7.54,0,0,0,2.68-2.83,8.69,8.69,0,0,0,1-4.35A9,9,0,0,0,198.38,16.16Zm-10.09-6.9a10.77,10.77,0,0,1,4.91-1.11,11,11,0,0,1,5.74,1.53,10.66,10.66,0,0,1,4,4.3,13.71,13.71,0,0,1,1.48,6.39A13.92,13.92,0,0,1,203,26.81a11.23,11.23,0,0,1-4.08,4.44,10.58,10.58,0,0,1-5.69,1.57,11.37,11.37,0,0,1-5-1.06A9.41,9.41,0,0,1,184.82,29v3.47h-5V.28h5V12A10,10,0,0,1,188.29,9.26Z"/></clipPath><clipPath id="clip-path-9" transform="translate(5 5)"><path class="cls-1" d="M226.25,16.2a7.29,7.29,0,0,0-2.68-2.77,6.87,6.87,0,0,0-3.57-1,7.33,7.33,0,0,0-3.56.93,7,7,0,0,0-2.69,2.73,8.45,8.45,0,0,0-1,4.26,8.8,8.8,0,0,0,1,4.35,7.28,7.28,0,0,0,2.69,2.83,7,7,0,0,0,3.52,1,7,7,0,0,0,3.56-1,7.28,7.28,0,0,0,2.69-2.83,8.73,8.73,0,0,0,1-4.3A7.82,7.82,0,0,0,226.25,16.2ZM209.17,14a11.13,11.13,0,0,1,4.07-4.31,10.94,10.94,0,0,1,5.7-1.53,10.42,10.42,0,0,1,4.95,1.12,10,10,0,0,1,3.38,2.77V8.61h5V32.55h-5V29a10,10,0,0,1-3.43,2.83,10.68,10.68,0,0,1-5,1.11,10.48,10.48,0,0,1-5.65-1.58,11.43,11.43,0,0,1-4.07-4.44,13.33,13.33,0,0,1-1.48-6.44A13.62,13.62,0,0,1,209.17,14Z"/></clipPath><clipPath id="clip-path-11" transform="translate(5 5)"><path class="cls-1" d="M245.23,9.21a8.47,8.47,0,0,1,4.26-1v5.14h-1.25a6,6,0,0,0-4.4,1.48c-1,1-1.48,2.69-1.48,5.14v12.6h-5V8.61h5v3.47A7.46,7.46,0,0,1,245.23,9.21Z"/></clipPath><clipPath id="clip-path-13" transform="translate(5 5)"><path class="cls-1" d="M23.75,39.81,6.16,1.94A3.37,3.37,0,0,0,3.1,0,3.1,3.1,0,0,0,.28,4.4L17.69,42.13a3.62,3.62,0,0,0,3.24,2.08A3.1,3.1,0,0,0,23.75,39.81Z"/></clipPath><clipPath id="clip-path-15" transform="translate(5 5)"><path class="cls-1" d="M27.59,10.46a3.47,3.47,0,1,0,0-6.94H10.37l3.2,6.9h14Z"/></clipPath><clipPath id="clip-path-17" transform="translate(5 5)"><path class="cls-1" d="M51.62,16.3H16.34l3.2,6.89H51.62a3.46,3.46,0,0,0,3.47-3.47A3.51,3.51,0,0,0,51.62,16.3Z"/></clipPath><clipPath id="clip-path-19" transform="translate(5 5)"><path class="cls-1" d="M41.3,36a3.47,3.47,0,1,0,0-6.94H22.22l3.2,6.9H41.3Z"/></clipPath><clipPath id="clip-path-21" transform="translate(5 5)"><path class="cls-1" d="M45.37,10.46h-7a3.47,3.47,0,0,1,0-6.94h7a3.47,3.47,0,1,1,0,6.94Z"/></clipPath><clipPath id="clip-path-23" transform="translate(5 5)"><path class="cls-1" d="M62.27,23.24h0a3.47,3.47,0,1,0-3.47-3.47A3.52,3.52,0,0,0,62.27,23.24Z"/></clipPath></defs><g id="Layer_2" data-name="Layer 2"><g id="Layer_1-2" data-name="Layer 1"><g class="cls-2"><g class="cls-3"><rect class="cls-4" x="82.73" y="8.19" width="34.59" height="34.72"/></g></g><g class="cls-5"><g class="cls-3"><rect class="cls-4" x="112.41" y="8.19" width="34.58" height="45.65"/></g></g><g class="cls-6"><g class="cls-3"><rect class="cls-4" x="141.9" y="8.19" width="34.54" height="45.65"/></g></g><g class="cls-7"><g class="cls-3"><rect class="cls-4" x="179.86" y="0.28" width="34.58" height="42.55"/></g></g><g class="cls-8"><g class="cls-3"><rect class="cls-4" x="207.69" y="8.19" width="34.58" height="34.72"/></g></g><g class="cls-9"><g class="cls-3"><rect class="cls-4" x="237.41" y="8.19" width="22.08" height="34.35"/></g></g><g class="cls-10"><g class="cls-3"><rect class="cls-4" width="34.05" height="54.21"/></g></g><g class="cls-11"><g class="cls-3"><rect class="cls-4" x="10.37" y="3.52" width="30.69" height="16.94"/></g></g><g class="cls-12"><g class="cls-3"><rect class="cls-4" x="16.34" y="16.3" width="48.75" height="16.9"/></g></g><g class="cls-13"><g class="cls-3"><rect class="cls-4" x="22.22" y="29.03" width="32.55" height="16.94"/></g></g><g class="cls-14"><g class="cls-3"><rect class="cls-4" x="34.91" y="3.52" width="23.94" height="16.94"/></g></g><g class="cls-15"><g class="cls-3"><rect class="cls-4" x="58.8" y="16.3" width="16.94" height="16.94"/></g></g></g></g></svg>